<svg width="534" height="46" viewBox="0 0 534 46" fill="none" xmlns="http://www.w3.org/2000/svg">
<path d="M34.626 12.8839V45.0942H24.9629V42.0664C22.8371 44.4822 19.6805 45.9961 15.3643 45.9961C6.95741 45.9961 0 38.5877 0 28.9891C0 19.3904 6.95741 11.9821 15.3965 11.9821C19.7127 11.9821 22.8693 13.4637 24.9952 15.9117V12.8839H34.626ZM24.9629 28.9891C24.9629 24.1575 21.7419 21.1298 17.2969 21.1298C12.8519 21.1298 9.66307 24.1575 9.66307 28.9891C9.66307 33.8206 12.8841 36.8484 17.3291 36.8484C21.7741 36.8484 24.9629 33.8206 24.9629 28.9891Z" fill="#F4495A"/>
<path d="M68.7368 12.884V45.0943H59.0737V42.0665C57.3343 44.4823 54.1133 45.9962 49.8616 45.9962C43.3551 45.9962 37.7827 41.3579 37.7827 32.6611V12.884H47.5102V31.2439C47.5102 35.2702 50.0226 37.1061 53.147 37.1061C56.6901 37.1061 59.1381 35.0447 59.1381 30.4708V12.884H68.7368Z" fill="#F4495A"/>
<path d="M84.5518 22.1602V33.5627C84.5518 36.3327 86.9676 36.5904 91.1871 36.3327V45.0939C78.5929 46.3823 74.8887 42.5815 74.8887 33.5627V22.1602H69.7351V12.8837H74.8887V6.76373L84.5518 3.86481V12.8837H91.1871V22.1602H84.5518Z" fill="#F4495A"/>
<path d="M90.9938 28.9891C90.9811 25.61 91.9714 22.3031 93.8395 19.4873C95.7076 16.6714 98.3693 14.4733 101.488 13.1713C104.606 11.8693 108.04 11.5221 111.356 12.1735C114.672 12.8249 117.72 14.4457 120.114 16.8306C122.508 19.2155 124.14 22.2572 124.804 25.5705C125.468 28.8838 125.133 32.3195 123.843 35.4427C122.553 38.5658 120.365 41.2359 117.556 43.1145C114.748 44.9932 111.444 45.9961 108.065 45.9961C105.823 46.0175 103.599 45.5927 101.522 44.7464C99.4453 43.9001 97.5578 42.6492 95.9691 41.0666C94.3804 39.4839 93.1224 37.601 92.2683 35.5276C91.4141 33.4542 90.9809 31.2316 90.9938 28.9891ZM115.474 28.9891C115.474 24.4153 112.253 21.3875 108.065 21.3875C103.878 21.3875 100.657 24.4153 100.657 28.9891C100.657 33.563 103.878 36.5907 108.065 36.5907C112.253 36.5907 115.441 33.563 115.441 28.9891H115.474Z" fill="#F4495A"/>
<path d="M125.491 28.9892C125.499 25.2693 126.725 21.6544 128.98 18.6963C131.236 15.7382 134.397 13.5994 137.982 12.6064C141.567 11.6135 145.378 11.8209 148.834 13.1971C152.29 14.5733 155.201 17.0426 157.122 20.228L148.682 25.1239C148.097 23.9865 147.196 23.0415 146.088 22.4019C144.98 21.7622 143.712 21.4548 142.434 21.5164C138.246 21.5164 135.186 24.5442 135.186 28.9892C135.186 33.4342 138.279 36.4619 142.434 36.4619C145.268 36.4619 147.652 35.1091 148.682 32.8544L157.122 37.6859C155.661 40.2544 153.534 42.3816 150.967 43.844C148.399 45.3064 145.485 46.0498 142.53 45.9962C140.282 46.0444 138.048 45.6376 135.961 44.8004C133.874 43.9632 131.977 42.7128 130.386 41.1243C128.794 39.5358 127.54 37.6419 126.699 35.5566C125.858 33.4712 125.447 31.2374 125.491 28.9892Z" fill="#F4495A"/>
<path d="M189.912 12.8839V45.0942H180.249V42.0664C178.123 44.4822 174.966 45.9961 170.65 45.9961C162.211 45.9961 155.254 38.5877 155.254 28.9891C155.254 19.3904 162.211 11.9821 170.65 11.9821C174.966 11.9821 178.123 13.4637 180.249 15.9117V12.8839H189.912ZM180.249 28.9891C180.249 24.1575 177.028 21.1298 172.583 21.1298C168.138 21.1298 164.917 24.1575 164.917 28.9891C164.917 33.8206 168.138 36.8484 172.583 36.8484C177.028 36.8484 180.249 33.8206 180.249 28.9891Z" fill="#F4495A"/>
<path d="M224.441 25.3171V45.0942H214.778V26.7344C214.778 22.7081 212.265 20.8721 209.141 20.8721C205.598 20.8721 203.15 22.9335 203.15 27.5074V45.0942H193.487V12.8839H203.15V15.9117C204.889 13.4959 208.11 11.9821 212.362 11.9821C218.901 11.9821 224.441 16.6203 224.441 25.3171Z" fill="#F4495A"/>
<path d="M260.645 12.8839V45.0942H250.982V42.0664C248.856 44.4822 245.7 45.9961 241.384 45.9961C232.945 45.9961 225.987 38.5877 225.987 28.9891C225.987 19.3904 232.945 11.9821 241.384 11.9821C245.7 11.9821 248.856 13.4637 250.982 15.9117V12.8839H260.645ZM250.982 28.9891C250.982 24.1575 247.761 21.1298 243.316 21.1298C238.871 21.1298 235.65 24.1575 235.65 28.9891C235.65 33.8206 238.871 36.8484 243.316 36.8484C247.761 36.8484 250.982 33.8206 250.982 28.9891Z" fill="#F4495A"/>
<path d="M297.3 0V45.0943H287.637V42.0666C285.511 44.4823 282.355 45.9962 278.039 45.9962C269.592 45.9962 262.642 38.5879 262.642 28.9892C262.642 19.3906 269.592 11.9822 278.039 11.9822C282.355 11.9822 285.511 13.4639 287.637 15.9119V0H297.3ZM287.637 28.9892C287.637 24.1577 284.416 21.1299 279.971 21.1299C275.526 21.1299 272.305 24.1577 272.305 28.9892C272.305 33.8208 275.526 36.8485 279.971 36.8485C284.416 36.8485 287.637 33.8208 287.637 28.9892Z" fill="#F4495A"/>
<path d="M333.956 12.8839V45.0942H324.293V42.0664C322.167 44.4822 319.01 45.9961 314.694 45.9961C306.255 45.9961 299.298 38.5877 299.298 28.9891C299.298 19.3904 306.255 11.9821 314.694 11.9821C319.01 11.9821 322.167 13.4637 324.293 15.9117V12.8839H333.956ZM324.293 28.9891C324.293 24.1575 321.072 21.1298 316.627 21.1298C312.182 21.1298 308.953 24.1575 308.953 28.9891C308.953 33.8206 312.174 36.8484 316.619 36.8484C321.064 36.8484 324.285 33.8206 324.285 28.9891H324.293Z" fill="#F4495A"/>
<path d="M362.438 44.7718H359.217V16.4429H345.455V44.7718H342.234V16.4429H336.831V13.3668H342.234V11.6677C342.234 3.94532 346.566 0.112305 354.796 0.112305C356.844 0.123824 358.885 0.356004 360.884 0.804825V3.69569C358.876 3.32056 356.838 3.13186 354.796 3.13202C348.354 3.13202 345.431 5.54778 345.431 11.6677V13.3668H362.398L362.438 44.7718Z" fill="#F4495A"/>
<path d="M395.663 25.237V44.7726H392.442V25.237C392.442 19.4634 389.108 15.6948 383.205 15.6948C377.053 15.6948 372.214 19.721 372.214 28.1923V44.7726H369.073V13.3676H372.214V19.3265C374.629 14.6801 378.656 12.667 383.487 12.667C390.952 12.675 395.663 17.6354 395.663 25.237Z" fill="#F4495A"/>
<path d="M432.423 13.3672V44.7722H429.201V37.6779C427.872 40.0814 425.912 42.0767 423.532 43.4488C421.152 44.8209 418.444 45.5179 415.697 45.4647C413.547 45.4733 411.416 45.0544 409.429 44.2323C407.442 43.4101 405.638 42.2011 404.122 40.6756C402.606 39.15 401.409 37.3384 400.599 35.346C399.79 33.3536 399.385 31.2201 399.407 29.0697C399.385 26.9206 399.789 24.7885 400.598 22.7971C401.406 20.8058 402.602 18.9949 404.116 17.4695C405.63 15.9442 407.432 14.7349 409.418 13.9118C411.403 13.0887 413.532 12.6681 415.681 12.6747C418.43 12.6185 421.142 13.3141 423.525 14.6863C425.908 16.0586 427.871 18.0555 429.201 20.4615V13.3672H432.423ZM429.201 29.0697C429.201 25.5458 427.802 22.1663 425.31 19.6745C422.818 17.1828 419.439 15.783 415.915 15.783C412.391 15.783 409.011 17.1828 406.52 19.6745C404.028 22.1663 402.628 25.5458 402.628 29.0697C402.628 32.5935 404.028 35.9731 406.52 38.4648C409.011 40.9566 412.391 42.3564 415.915 42.3564C419.439 42.3564 422.818 40.9566 425.31 38.4648C427.802 35.9731 429.201 32.5935 429.201 29.0697Z" fill="#F4495A"/>
<path d="M465.688 25.237V44.7726H462.467V25.237C462.467 19.4634 459.133 15.6948 453.23 15.6948C447.078 15.6948 442.239 19.721 442.239 28.1923V44.7726H439.098V13.3676H442.239V19.3265C444.654 14.6801 448.681 12.667 453.512 12.667C460.985 12.675 465.688 17.6354 465.688 25.237Z" fill="#F4495A"/>
<path d="M469.464 29.0698C469.464 19.7772 476.502 12.6748 485.988 12.6748C492.14 12.6748 497.415 15.8153 499.678 20.7274L497.101 22.2332C495.281 18.2713 491.013 15.7026 485.988 15.7026C484.23 15.6808 482.485 16.0121 480.857 16.677C479.229 17.3418 477.751 18.3267 476.51 19.5732C475.27 20.8197 474.292 22.3025 473.635 23.9337C472.978 25.565 472.655 27.3115 472.685 29.0698C472.654 30.8302 472.976 32.5789 473.634 34.2122C474.291 35.8455 475.27 37.33 476.513 38.5776C477.755 39.8252 479.235 40.8104 480.866 41.4748C482.496 42.1392 484.244 42.4691 486.004 42.4451C488.301 42.4932 490.567 41.9095 492.555 40.7579C494.543 39.6063 496.177 37.9309 497.278 35.9145L499.911 37.4847C497.399 42.3163 492.124 45.4648 485.972 45.4648C476.494 45.4648 469.464 38.3625 469.464 29.0698Z" fill="#F4495A"/>
<path d="M533.208 29.1984C533.208 29.6977 533.152 30.1969 533.152 30.7042H504.694C505.451 37.7985 510.855 42.4449 518.013 42.4449C523.159 42.4449 527.056 40.0291 528.876 36.7356L531.638 38.3461C529.07 42.622 524.165 45.4485 517.949 45.4485C508.286 45.4485 501.425 38.5394 501.425 29.0535C501.425 19.8172 508.085 12.6584 517.699 12.6584C527.314 12.6584 533.208 20.5902 533.208 29.1984ZM504.694 27.6282H529.947C529.255 19.9621 523.851 15.6943 517.699 15.6943C510.533 15.6943 505.322 20.6546 504.694 27.6282Z" fill="#F4495A"/>
</svg>
