<svg width="300" height="31" viewBox="0 0 300 31" fill="none" xmlns="http://www.w3.org/2000/svg">
<path d="M12.8796 7.00465H17.8588V23.6017H12.8796V22.0416C11.7842 23.303 10.1576 24.0664 7.9336 24.0664C3.5851 24.0664 0 20.249 0 15.3029C0 10.3569 3.585 6.53955 7.9336 6.53955C10.1576 6.53955 11.7842 7.30303 12.8796 8.56445V7.00465ZM8.9294 19.3527C11.2199 19.3527 12.8796 17.7925 12.8796 15.3029C12.8796 12.8133 11.2199 11.2531 8.9294 11.2531C6.639 11.2531 4.9792 12.8133 4.9792 15.3029C4.9792 17.7925 6.6389 19.3527 8.9294 19.3527Z" fill="#003DA5"/>
<path d="M32.2336 7.00451H37.2128V23.6015H32.2336V22.0414C31.3374 23.2696 29.6776 24.0662 27.4868 24.0662C24.1341 24.0662 21.2793 21.6762 21.2793 17.1949V7.00391H26.2586V16.4644C26.2586 18.5225 27.5532 19.4852 29.1465 19.4852C30.9722 19.4852 32.2336 18.4229 32.2336 16.0661V7.00451Z" fill="#003DA5"/>
<path d="M50.5907 11.7843H47.1717V17.6597C47.1717 19.0871 48.3999 19.2199 50.5907 19.0871V23.6016C44.0845 24.2655 42.1924 22.307 42.1924 17.6597V11.7843H39.5369V7.00423H42.1924V3.85073L47.1717 2.35693V7.00423H50.5907V11.7843Z" fill="#003DA5"/>
<path d="M61.0516 24.0664C56.172 24.0664 52.255 20.249 52.255 15.303C52.255 10.357 56.172 6.53955 61.0516 6.53955C65.9313 6.53955 69.8483 10.357 69.8483 15.303C69.8483 20.249 65.9313 24.0664 61.0516 24.0664ZM61.0516 19.22C63.2093 19.22 64.869 17.6598 64.869 15.303C64.869 12.9462 63.2093 11.386 61.0516 11.386C58.894 11.386 57.2342 12.9462 57.2342 15.303C57.2342 17.6598 58.894 19.22 61.0516 19.22Z" fill="#003DA5"/>
<path d="M84.7147 7.00465H89.6939V30.2407H84.7147V22.0416C83.6192 23.303 81.9927 24.0664 79.7686 24.0664C75.4201 24.0664 71.8351 20.249 71.8351 15.3029C71.8351 10.3569 75.4201 6.53955 79.7686 6.53955C81.9927 6.53955 83.6192 7.30303 84.7147 8.56445V7.00465ZM80.7645 19.3527C83.0549 19.3527 84.7147 17.7925 84.7147 15.3029C84.7147 12.8133 83.0549 11.2531 80.7645 11.2531C78.474 11.2531 76.8143 12.8133 76.8143 15.3029C76.8143 17.7925 78.474 19.3527 80.7645 19.3527Z" fill="#003DA5"/>
<path d="M104.07 7.00451H109.05V23.6015H104.07V22.0414C103.174 23.2696 101.514 24.0662 99.3231 24.0662C95.9705 24.0662 93.1157 21.6762 93.1157 17.1949V7.00391H98.0949V16.4644C98.0949 18.5225 99.3895 19.4852 100.983 19.4852C102.809 19.4852 104.07 18.4229 104.07 16.0661V7.00451Z" fill="#003DA5"/>
<path d="M126.14 0.199707L122.29 4.84701H117.51L120.165 0.199707H126.14ZM117.144 17.2947C117.775 19.0208 119.302 19.6183 121.128 19.6183C122.489 19.6183 123.651 19.0872 124.314 18.3569L128.298 20.6474C126.671 22.9046 124.215 24.0664 121.061 24.0664C115.385 24.0664 111.866 20.249 111.866 15.303C111.866 10.357 115.451 6.53961 120.696 6.53961C125.543 6.53961 129.128 10.2906 129.128 15.303C129.128 16.0001 129.061 16.664 128.929 17.2947H117.144ZM117.045 13.5769H124.182C123.651 11.6516 122.157 10.9545 120.663 10.9545C118.771 10.9545 117.51 11.8839 117.045 13.5769Z" fill="#003DA5"/>
<path d="M141.88 6.54011C146.229 6.54011 149.814 10.3575 149.814 15.3035C149.814 20.2495 146.229 24.0669 141.88 24.0669C139.656 24.0669 138.03 23.3035 136.934 22.0421V23.6022H131.955V0.366211H136.934V8.56531C138.03 7.30391 139.656 6.54011 141.88 6.54011ZM140.884 19.3531C143.175 19.3531 144.834 17.7929 144.834 15.3033C144.834 12.8137 143.175 11.2535 140.884 11.2535C138.594 11.2535 136.934 12.8137 136.934 15.3033C136.934 17.7929 138.594 19.3531 140.884 19.3531Z" fill="#003DA5"/>
<path d="M157.09 17.2947C157.721 19.0208 159.248 19.6182 161.073 19.6182C162.434 19.6182 163.596 19.0871 164.26 18.3568L168.243 20.6474C166.617 22.9046 164.16 24.0664 161.007 24.0664C155.331 24.0664 151.812 20.249 151.812 15.303C151.812 10.357 155.397 6.53955 160.642 6.53955C165.488 6.53955 169.073 10.2906 169.073 15.303C169.073 16.0001 169.007 16.664 168.874 17.2947H157.09ZM156.99 13.5769H164.127C163.596 11.6516 162.102 10.9545 160.609 10.9545C158.716 10.9545 157.455 11.8839 156.99 13.5769Z" fill="#003DA5"/>
<path d="M179.7 24.0664C174.654 24.0664 170.903 20.249 170.903 15.303C170.903 10.357 174.654 6.53955 179.7 6.53955C182.92 6.53955 185.775 8.23245 187.202 10.7885L182.854 13.3113C182.289 12.1495 181.094 11.4524 179.634 11.4524C177.476 11.4524 175.883 13.0126 175.883 15.303C175.883 17.5935 177.476 19.1536 179.634 19.1536C181.094 19.1536 182.322 18.4565 182.854 17.2947L187.202 19.7843C185.775 22.3735 182.953 24.0664 179.7 24.0664Z" fill="#003DA5"/>
<path d="M201.95 7.00456V23.6016H200.257V8.63056H192.987V23.6016H191.294V8.63056H188.44V7.00406H191.294V6.1078C191.294 2.0248 193.585 0 197.933 0C199.029 0 200.058 0.13278 201.153 0.36514V1.89214C200.058 1.69298 199.029 1.59339 197.933 1.59339C194.547 1.59339 192.987 2.88799 192.987 6.10789V7.00415L201.95 7.00456Z" fill="#003DA5"/>
<path d="M214.62 6.63965C218.57 6.63965 221.059 9.26205 221.059 13.2785V23.6025H219.366V13.2785C219.366 10.2246 217.607 8.23295 214.487 8.23295C211.234 8.23295 208.678 10.3574 208.678 14.8387V23.6021H207.018V7.00515H208.678V10.1586C209.939 7.70225 212.064 6.63965 214.62 6.63965Z" fill="#003DA5"/>
<path d="M240.36 7.00466H242.053V23.6017H240.36V19.8507C238.965 22.3403 236.409 23.9669 233.223 23.9669C228.509 23.9669 224.625 20.2158 224.625 15.303C224.625 10.3902 228.509 6.63916 233.223 6.63916C236.409 6.63916 238.965 8.26576 240.36 10.7553V7.00466ZM233.355 22.3737C237.306 22.3737 240.36 19.2534 240.36 15.3032C240.36 11.353 237.306 8.23266 233.355 8.23266C229.405 8.23266 226.318 11.353 226.318 15.3032C226.318 19.2534 229.405 22.3737 233.355 22.3737Z" fill="#003DA5"/>
<path d="M254.75 6.63965C258.7 6.63965 261.189 9.26205 261.189 13.2785V23.6025H259.496V13.2785C259.496 10.2246 257.737 8.23295 254.617 8.23295C251.364 8.23295 248.808 10.3574 248.808 14.8387V23.6021H247.148V7.00515H248.808V10.1586C250.069 7.70225 252.194 6.63965 254.75 6.63965Z" fill="#003DA5"/>
<path d="M273.49 23.9673C268.477 23.9673 264.759 20.2162 264.759 15.3034C264.759 10.3906 268.477 6.63965 273.49 6.63965C276.743 6.63965 279.531 8.29945 280.726 10.8885L279.365 11.6852C278.402 9.59395 276.145 8.23295 273.49 8.23295C269.473 8.23295 266.452 11.3532 266.452 15.3034C266.452 19.2536 269.473 22.3739 273.49 22.3739C276.178 22.3739 278.369 20.9797 279.465 18.9216L280.859 19.7515C279.531 22.3075 276.743 23.9673 273.49 23.9673Z" fill="#003DA5"/>
<path d="M291.8 6.63965C296.845 6.63965 299.999 10.8221 299.999 15.3698C299.999 15.6354 299.966 15.9009 299.966 16.1665H284.929C285.327 19.9175 288.182 22.3739 291.966 22.3739C294.688 22.3739 296.746 21.1125 297.709 19.3532L299.169 20.2162C297.808 22.4735 295.219 23.9673 291.933 23.9673C286.821 23.9673 283.202 20.3158 283.202 15.3034C283.202 10.4238 286.721 6.63965 291.8 6.63965ZM291.8 8.23305C288.016 8.23305 285.261 10.8554 284.929 14.54H298.273C297.908 10.4903 295.053 8.23305 291.8 8.23305Z" fill="#003DA5"/>
</svg>
