<svg version="1.1" class="logo_cameleon" xmlns="http://www.w3.org/2000/svg"
    xmlns:xlink="http://www.w3.org/1999/xlink" x="0px" y="0px" width="612px" height="574px"
    viewBox="0 109 612 574" enable-background="new 0 109 612 574" xml:space="preserve">
    <rect x="0" y="109" width="612" height="574" fill="black"/>
    <g>
        <path fill="#FFFFFF" d="M286.571,547.71c-83.659,0-151.71-68.051-151.71-151.71s68.051-151.71,151.71-151.71
            c39.348,0,76.655,15.004,105.032,42.221l93.374-97.292c-53.618-51.446-124.085-79.79-198.406-79.79
            C128.559,109.429,0,237.987,0,396s128.559,286.571,286.571,286.571c78.778,0,152.216-31.315,206.781-88.166l-97.292-93.374
            C367.161,531.139,328.286,547.71,286.571,547.71z"></path>
        <circle fill="#FFFFFF" cx="530.496" cy="396" r="81.504"></circle>
    </g>
</svg>